<mxfile host="65bd71144e">
    <diagram id="zmIfjD_bW19FaZOOcWHy" name="PÃ¡gina-1">
        <mxGraphModel dx="1415" dy="348" grid="1" gridSize="10" guides="1" tooltips="1" connect="1" arrows="1" fold="1" page="1" pageScale="1" pageWidth="827" pageHeight="1169" math="0" shadow="0">
            <root>
                <mxCell id="0"/>
                <mxCell id="1" parent="0"/>
                <mxCell id="3" style="edgeStyle=none;html=1;" parent="1" source="2" edge="1">
                    <mxGeometry relative="1" as="geometry">
                        <mxPoint x="165" y="150" as="targetPoint"/>
                    </mxGeometry>
                </mxCell>
                <mxCell id="2" value="inicio" style="ellipse;whiteSpace=wrap;html=1;fillColor=#00FF00;" parent="1" vertex="1">
                    <mxGeometry x="110" y="30" width="110" height="80" as="geometry"/>
                </mxCell>
                <mxCell id="5" style="edgeStyle=none;html=1;" parent="1" source="4" edge="1">
                    <mxGeometry relative="1" as="geometry">
                        <mxPoint x="170" y="250" as="targetPoint"/>
                    </mxGeometry>
                </mxCell>
                <mxCell id="4" value="num" style="shape=parallelogram;perimeter=parallelogramPerimeter;whiteSpace=wrap;html=1;fixedSize=1;fillColor=#00CC00;" parent="1" vertex="1">
                    <mxGeometry x="110" y="140" width="120" height="60" as="geometry"/>
                </mxCell>
                <mxCell id="11" style="edgeStyle=none;html=1;exitX=0;exitY=0.5;exitDx=0;exitDy=0;entryX=0.5;entryY=0;entryDx=0;entryDy=0;" parent="1" source="7" target="8" edge="1">
                    <mxGeometry relative="1" as="geometry">
                        <Array as="points">
                            <mxPoint x="50" y="270"/>
                        </Array>
                    </mxGeometry>
                </mxCell>
                <mxCell id="12" style="edgeStyle=none;html=1;exitX=1;exitY=0.5;exitDx=0;exitDy=0;" parent="1" source="7" edge="1">
                    <mxGeometry relative="1" as="geometry">
                        <mxPoint x="290" y="350" as="targetPoint"/>
                        <Array as="points">
                            <mxPoint x="240" y="280"/>
                            <mxPoint x="290" y="280"/>
                        </Array>
                    </mxGeometry>
                </mxCell>
                <mxCell id="7" value="num%2=0" style="rhombus;whiteSpace=wrap;html=1;fillColor=#00CC00;" parent="1" vertex="1">
                    <mxGeometry x="110" y="230" width="120" height="80" as="geometry"/>
                </mxCell>
                <mxCell id="14" style="edgeStyle=none;html=1;exitX=0.596;exitY=0.752;exitDx=0;exitDy=0;exitPerimeter=0;endArrow=none;endFill=0;" parent="1" source="8" edge="1">
                    <mxGeometry relative="1" as="geometry">
                        <mxPoint x="160" y="530" as="targetPoint"/>
                        <Array as="points">
                            <mxPoint x="60" y="490"/>
                            <mxPoint x="60" y="530"/>
                        </Array>
                    </mxGeometry>
                </mxCell>
                <mxCell id="8" value="&quot;No es par&quot;." style="shape=document;whiteSpace=wrap;html=1;boundedLbl=1;fillColor=#009900;" parent="1" vertex="1">
                    <mxGeometry x="-10" y="340" width="120" height="80" as="geometry"/>
                </mxCell>
                <mxCell id="15" style="edgeStyle=none;html=1;exitX=0.401;exitY=0.929;exitDx=0;exitDy=0;exitPerimeter=0;endArrow=none;endFill=0;" parent="1" source="9" edge="1">
                    <mxGeometry relative="1" as="geometry">
                        <mxPoint x="160" y="530" as="targetPoint"/>
                        <mxPoint x="270" y="410" as="sourcePoint"/>
                        <Array as="points">
                            <mxPoint x="270" y="530"/>
                        </Array>
                    </mxGeometry>
                </mxCell>
                <mxCell id="9" value="&quot;es par.&quot;" style="shape=document;whiteSpace=wrap;html=1;boundedLbl=1;fillColor=#00CC00;" parent="1" vertex="1">
                    <mxGeometry x="220" y="340" width="120" height="80" as="geometry"/>
                </mxCell>
                <mxCell id="17" style="edgeStyle=none;html=1;endArrow=none;endFill=0;" edge="1" parent="1" source="16">
                    <mxGeometry relative="1" as="geometry">
                        <mxPoint x="160" y="530" as="targetPoint"/>
                    </mxGeometry>
                </mxCell>
                <mxCell id="16" value="fin" style="ellipse;whiteSpace=wrap;html=1;fillColor=#00CC00;" parent="1" vertex="1">
                    <mxGeometry x="100" y="570" width="120" height="80" as="geometry"/>
                </mxCell>
            </root>
        </mxGraphModel>
    </diagram>
</mxfile>